<?xml version="1.0" encoding="UTF-8" standalone="no"?>
<!-- Created with Inkscape (http://www.inkscape.org/) -->

<svg
   xmlns:dc="http://purl.org/dc/elements/1.1/"
   xmlns:cc="http://creativecommons.org/ns#"
   xmlns:rdf="http://www.w3.org/1999/02/22-rdf-syntax-ns#"
   xmlns:svg="http://www.w3.org/2000/svg"
   xmlns="http://www.w3.org/2000/svg"
   xmlns:sodipodi="http://sodipodi.sourceforge.net/DTD/sodipodi-0.dtd"
   xmlns:inkscape="http://www.inkscape.org/namespaces/inkscape"
   id="svg37252"
   viewBox="0 0 462.94 462.94"
   version="1.1"
   inkscape:version="0.91 r13725"
   sodipodi:docname="Globe-3D.svg">
  <defs
     id="defs26482" />
  <sodipodi:namedview
     pagecolor="#ffffff"
     bordercolor="#666666"
     borderopacity="1"
     objecttolerance="10"
     gridtolerance="10"
     guidetolerance="10"
     inkscape:pageopacity="0"
     inkscape:pageshadow="2"
     inkscape:window-width="1916"
     inkscape:window-height="1035"
     id="namedview26480"
     showgrid="false"
     inkscape:zoom="1.1757429"
     inkscape:cx="231.47"
     inkscape:cy="231.47"
     inkscape:window-x="4"
     inkscape:window-y="1"
     inkscape:window-maximized="1"
     inkscape:current-layer="g27097" />
  <metadata
     id="metadata26478">
    <rdf:RDF>
      <cc:Work>
        <dc:format>image/svg+xml</dc:format>
        <dc:type
           rdf:resource="http://purl.org/dc/dcmitype/StillImage" />
        <cc:license
           rdf:resource="http://creativecommons.org/licenses/publicdomain/" />
        <dc:publisher>
          <cc:Agent
             rdf:about="http://openclipart.org/">
            <dc:title>Openclipart</dc:title>
          </cc:Agent>
        </dc:publisher>
        <dc:title>Globe-5</dc:title>
        <dc:date>2010-08-16T19:25:18</dc:date>
        <dc:description>Vector wire-framed globes.</dc:description>
        <dc:source>https://openclipart.org/detail/80965/globe-5-by-inky2010</dc:source>
        <dc:creator>
          <cc:Agent>
            <dc:title>inky2010</dc:title>
          </cc:Agent>
        </dc:creator>
        <dc:subject>
          <rdf:Bag>
            <rdf:li>3D</rdf:li>
            <rdf:li>Wire-frame</rdf:li>
            <rdf:li>globe</rdf:li>
            <rdf:li>gloss</rdf:li>
            <rdf:li>glossy</rdf:li>
            <rdf:li>glow</rdf:li>
            <rdf:li>icon</rdf:li>
            <rdf:li>inkscape</rdf:li>
            <rdf:li>inky2010</rdf:li>
            <rdf:li>transparent</rdf:li>
            <rdf:li>wire</rdf:li>
          </rdf:Bag>
        </dc:subject>
      </cc:Work>
      <cc:License
         rdf:about="http://creativecommons.org/licenses/publicdomain/">
        <cc:permits
           rdf:resource="http://creativecommons.org/ns#Reproduction" />
        <cc:permits
           rdf:resource="http://creativecommons.org/ns#Distribution" />
        <cc:permits
           rdf:resource="http://creativecommons.org/ns#DerivativeWorks" />
      </cc:License>
    </rdf:RDF>
  </metadata>
  <g
     id="g27097"
     transform="translate(592.87068,-264.35297)">
    <g
       id="g27134"
       transform="translate(6.8042086,-0.85052607)">
      <g
         transform="translate(-640.06268,189.79297)"
         id="layer1">
        <g
           transform="matrix(2.0936,0,0,2.0936,271.75,304.77)"
           style="stroke:#814ba6"
           id="g27338">
          <g
             style="stroke:#814ba6"
             id="g27340">
            <path
               transform="matrix(0.99919663,0.04007599,-0.04007599,0.99919663,0,0)"
               d="M 1.5314e-7,100 C -3.1563998,100 -5.7150998,55.228 -5.7150998,0 c 0,-55.228 2.5587,-100 5.71509995314,-100 l 2.6524e-7,0"
               style="fill:none;stroke:#814ba6"
               id="path27342"
               inkscape:connector-curvature="0" />
            <path
               transform="matrix(0.98104996,0.19375494,-0.19375494,0.98104996,0,0)"
               d="M 7.1462e-7,100 C -14.728999,100 -26.669999,55.228 -26.669999,0 c 0,-55.228 11.941,-100 26.66999971462,-100 l 1.2378e-6,0"
               style="fill:none;stroke:#814ba6"
               id="path27344"
               inkscape:connector-curvature="0" />
            <path
               transform="matrix(0.93263273,0.3608271,-0.3608271,0.93263273,0,0)"
               d="M 1.2274e-6,100 C -25.298999,100 -45.806999,55.228 -45.806999,0 c 0,-55.228 20.508,-100 45.8070002274,-100 l 2.1259e-6,0"
               style="fill:none;stroke:#814ba6"
               id="path27346"
               inkscape:connector-curvature="0" />
            <path
               transform="matrix(0.83467488,0.55074299,-0.55074299,0.83467488,0,0)"
               d="M 1.6565e-6,100 C -34.143998,100 -61.822998,55.228 -61.822998,0 c 0,-55.228 27.679,-100 61.8229996565,-100 l 2.8692e-6,0"
               style="fill:none;stroke:#814ba6"
               id="path27348"
               inkscape:connector-curvature="0" />
            <path
               transform="matrix(0.6478,0.76181,-0.76181,0.6478,0,0)"
               d="M 1.9728e-6,100 C -40.661998,100 -73.625998,55.228 -73.625998,0 c 0,-55.228 32.964,-100 73.6259999728,-100 l 3.417e-6,0"
               style="fill:none;stroke:#814ba6"
               id="path27350"
               inkscape:connector-curvature="0" />
            <path
               transform="matrix(0.32096014,0.9470927,-0.9470927,0.32096014,0,0)"
               d="M 2.1546e-6,100 C -44.409998,100 -80.410998,55.228 -80.410998,0 c 0,-55.228 36.001,-100 80.4110001546,-100 l 3.7319e-6,0"
               style="fill:none;stroke:#814ba6"
               id="path27352"
               inkscape:connector-curvature="0" />
            <path
               transform="matrix(0.12102046,-0.99265001,0.99265001,0.12102046,0,0)"
               d="M 1.6029e-6,-100 C 45.131002,-100 81.717002,-55.228 81.717002,0 c 0,55.228 -36.586,100 -81.7170003971,100"
               style="fill:none;stroke:#814ba6"
               id="path27354"
               inkscape:connector-curvature="0" />
            <path
               transform="matrix(0.51469394,-0.85737398,0.85737398,0.51469394,0,0)"
               d="M 1.5193e-6,-100 C 42.776002,-100 77.453002,-55.228 77.453002,0 c 0,55.228 -34.677,100 -77.4530004807,100"
               style="fill:none;stroke:#814ba6"
               id="path27356"
               inkscape:connector-curvature="0" />
            <path
               transform="matrix(0.76179842,-0.64781415,0.64781415,0.76179842,0,0)"
               d="M 1.3321e-6,-100 C 37.507001,-100 67.912001,-55.228 67.912001,0 c 0,55.228 -30.405,100 -67.9119996679,100"
               style="fill:none;stroke:#814ba6"
               id="path27358"
               inkscape:connector-curvature="0" />
            <path
               transform="matrix(0.89492657,-0.44621343,0.44621343,0.89492657,0,0)"
               d="M 1.0542e-6,-100 C 29.681001,-100 53.742001,-55.228 53.742001,0 c 0,55.228 -24.061,100 -53.7419999458,100"
               style="fill:none;stroke:#814ba6"
               id="path27360"
               inkscape:connector-curvature="0" />
            <path
               transform="matrix(0.96302633,-0.26940729,0.26940729,0.96302633,0,0)"
               d="M 7.0439e-7,-100 C 19.833001,-100 35.910001,-55.228 35.910001,0 35.910001,55.228 19.833001,100 7.0439e-7,100"
               style="fill:none;stroke:#814ba6"
               id="path27362"
               inkscape:connector-curvature="0" />
            <path
               transform="matrix(0.99384163,-0.11080982,0.11080982,0.99384163,0,0)"
               d="M 3.0661e-7,-100 C 8.6329003,-100 15.631,-55.228 15.631,0 15.631,55.228 8.6329003,100 3.0661e-7,100"
               style="fill:none;stroke:#814ba6"
               id="path27364"
               inkscape:connector-curvature="0" />
          </g>
          <g
             style="stroke:#814ba6"
             id="g27366">
            <path
               d="m 15.682,98.764 c -10.262,1.6294 -21.102,1.6294 -31.364,10e-7"
               style="fill:none;stroke:#814ba6"
               id="path27368"
               inkscape:connector-curvature="0" />
            <path
               d="m 50.483,86.323 c -27.345,15.992 -72.114,16.242 -99.995,0.55695 -0.3268,-0.18384 -0.65047,-0.3695 -0.97099,-0.55695"
               style="fill:none;stroke:#814ba6"
               id="path27370"
               inkscape:connector-curvature="0" />
            <path
               d="M 69.65,71.756 C 46.92,93.82 -2.69,101.14 -41.16,88.099 -52.906,84.117 -62.708,78.495 -69.65,71.756"
               style="fill:none;stroke:#814ba6"
               id="path27372"
               inkscape:connector-curvature="0" />
            <path
               d="M 83.237,55.422 C 65.681,81.79 14.182,95.003 -31.793,84.932 -55.478,79.743 -74.19,69.01 -83.237,55.422"
               style="fill:none;stroke:#814ba6"
               id="path27374"
               inkscape:connector-curvature="0" />
            <path
               d="M 92.612,37.724 C 80.661,67.062 29.51,85.288 -21.638,78.434 -56.87,73.712 -84.38,57.933 -92.612,37.724"
               style="fill:none;stroke:#814ba6"
               id="path27376"
               inkscape:connector-curvature="0" />
            <path
               d="M 98.16,19.097 C 92.11,50.193 43.258,72.587 -10.95,69.117 -56.829,66.181 -93.04,45.411 -98.16,19.097"
               style="fill:none;stroke:#814ba6"
               id="path27378"
               inkscape:connector-curvature="0" />
            <path
               d="M 100,0 C 100,31.678 55.228,57.359 0,57.359 -55.228,57.359 -100,31.678 -100,0 l 0,-2.662e-6"
               style="fill:none;stroke:#814ba6"
               id="path27380"
               inkscape:connector-curvature="0" />
            <path
               d="m 98.16,-19.097 c 6.05,31.095 -32.994,59.116 -87.206,62.586 -54.212,3.47 -103.06,-18.925 -109.11,-50.02 -0.81236,-4.1756 -0.81236,-8.3901 -10e-7,-12.566"
               style="fill:none;stroke:#814ba6"
               id="path27382"
               inkscape:connector-curvature="0" />
            <path
               d="m 92.612,-37.724 c 11.948,29.338 -19.826,58.677 -70.974,65.532 -51.148,6.854 -102.3,-11.372 -114.25,-40.71 -3.3255,-8.1641 -3.3255,-16.658 10e-7,-24.822"
               style="fill:none;stroke:#814ba6"
               id="path27384"
               inkscape:connector-curvature="0" />
            <path
               d="m 83.237,-55.422 c 17.553,26.368 -5.478,55.907 -51.448,65.977 -45.971,10.07 -97.47,-3.142 -115.03,-29.51 -7.8182,-11.742 -7.8182,-24.725 -2e-6,-36.467"
               style="fill:none;stroke:#814ba6"
               id="path27386"
               inkscape:connector-curvature="0" />
            <path
               d="m 69.65,-71.756 c 22.731,22.064 9.974,50.52 -28.493,63.558 C 2.69,4.84 -46.92,-2.4771 -69.653,-24.541 c -15.002,-14.562 -15.002,-32.653 1e-6,-47.215"
               style="fill:none;stroke:#814ba6"
               id="path27388"
               inkscape:connector-curvature="0" />
            <path
               d="m 50.483,-86.322 c 27.345,15.992 26.91,41.672 -0.97099,57.356 -27.881,15.685 -72.65,15.435 -99.995,-0.55695 -26.97,-15.773 -26.97,-41.026 -3e-6,-56.799"
               style="fill:none;stroke:#814ba6"
               id="path27390"
               inkscape:connector-curvature="0" />
            <path
               d="m 15.682,-98.764 c 31.286,4.9678 49.627,23.543 40.966,41.488 -8.6609,17.945 -41.044,28.466 -72.33,23.498 -31.286,-4.9678 -49.627,-23.543 -40.966,-41.488 5.5101,-11.417 21.062,-20.337 40.966,-23.498"
               style="fill:none;stroke:#814ba6"
               id="path27392"
               inkscape:connector-curvature="0" />
            <path
               d="m 45.399,-72.987 c 0,14.382 -20.326,26.041 -45.399,26.041 -25.073,0 -45.399,-11.659 -45.399,-26.041 0,-14.382 20.326,-26.041 45.399,-26.041 25.073,0 45.399,11.659 45.399,26.041 z"
               style="fill:none;stroke:#814ba6"
               id="path27394"
               inkscape:connector-curvature="0" />
            <path
               d="m 30.902,-77.906 c 0,9.7895 -13.835,17.725 -30.902,17.725 -17.067,0 -30.902,-7.936 -30.902,-17.725 0,-9.7895 13.835,-17.725 30.902,-17.725 17.067,0 30.902,7.936 30.902,17.725 z"
               style="fill:none;stroke:#814ba6"
               id="path27396"
               inkscape:connector-curvature="0" />
            <path
               d="m 15.643,-80.907 c 0,4.956 -7.0038,8.9737 -15.643,8.9737 -8.6396,0 -15.643,-4.0177 -15.643,-8.9737 0,-4.956 7.0038,-8.9737 15.643,-8.9737 8.6396,0 15.643,4.0177 15.643,8.9737 z"
               style="fill:none;stroke:#814ba6"
               id="path27398"
               inkscape:connector-curvature="0" />
          </g>
          <path
             d="M 100,0 C 100,55.228 55.228,100 0,100 -55.228,100 -100,55.228 -100,0 c 0,-55.228 44.772,-100 100,-100 55.228,0 100,44.772 100,100 z"
             style="fill:none;stroke:#814ba6"
             id="path27400"
             inkscape:connector-curvature="0" />
        </g>
      </g>
      <path
         sodipodi:nodetypes="ccccccccccccccccccccccccccccccccccccccccccccccccccccccccccccccccccccccccc"
         id="path6"
         style="fill:#814ba6;fill-opacity:1"
         inkscape:connector-curvature="0"
         d="m -577.51466,500.6045 c 0,48.30804 17.81907,86.42708 43.43373,122.34845 l -12.45787,-62.8924 z m 44.67672,-134.39546 27.40173,-6.81268 c 23.23189,-35.30203 52.58019,-52.41864 82.36467,-57.99264 l -43.64485,32.59996 46.46378,-11.76736 33.35863,-19.19933 -7.57982,-15.87795 c -54.80344,7.432 -105.60121,35.69662 -138.36414,79.05 z m 30.38018,133.77611 19.65775,40.87605 58.37758,5.574 31.57155,123.86678 38.71982,0 44.08104,-55.74006 -2.38277,-34.68269 c 19.06207,-15.48335 33.95431,-34.6827 39.91121,-59.45605 l -29.78447,7.432 -38.71982,-63.17205 8.93533,-6.19334 38.12414,55.74004 37.52845,-34.06335 c -19.65776,-2.47734 -32.76293,-12.38668 -38.12414,-29.72804 l 67.90861,11.14801 24.42329,52.02406 10.7224,-69.3654 30.38017,37.16004 c -2.86592,-96.53948 -70.88707,-167.22016 -154.28361,-190.13552 0,21.05736 -11.3181,38.39871 -27.40173,48.30805 l -21.44481,-13.00601 -41.10259,24.77336 14.29656,14.24467 22.04051,-27.25069 -4.16983,33.44403 c -26.80603,0 -39.91121,4.33534 -56.59051,13.62535 l -3.57414,17.34135 -18.46638,-4.33534 -7.74397,21.67668 16.08362,4.95468 c 8.93535,-11.76736 16.08362,-19.19935 33.35863,-23.53469 l 17.87068,20.43802 -10.72241,3.716 6.55258,5.574 9.53104,-11.76734 -13.70086,-19.81868 c 13.70086,0 21.44483,8.67068 26.21034,30.34736 l 24.42327,-37.16003 29.78448,13.00601 -2.97844,8.05134 -35.14569,3.09666 0,13.62535 26.80603,1.858 -8.33966,22.29602 c -48.84654,0 -63.14309,-1.23866 -73.26982,-24.15402 l -40.50688,-2.47734 c -29.78449,18.58003 -44.67672,42.73404 -48.84655,71.84273 z m 57.78189,-128.20211 23.82758,6.19334 0,-24.77335 z m 132.24308,24.15403 11.9138,-6.81268 16.08363,34.6827 -10.72242,2.47734 z m 6.5526,247.11422 10.72241,4.33534 17.87068,-42.73404 -22.6362,14.86401 z" />
    </g>
  </g>
</svg>
